<mxfile host="Electron" agent="Mozilla/5.0 (Windows NT 10.0; Win64; x64) AppleWebKit/537.36 (KHTML, like Gecko) draw.io/24.7.5 Chrome/126.0.6478.183 Electron/31.3.0 Safari/537.36" version="24.7.5">
  <diagram name="Página-1" id="CHLdNeRNkdQImlqFNEV8">
    <mxGraphModel dx="-8" dy="478" grid="1" gridSize="10" guides="1" tooltips="1" connect="1" arrows="1" fold="1" page="1" pageScale="1" pageWidth="827" pageHeight="1169" math="0" shadow="0">
      <root>
        <mxCell id="0" />
        <mxCell id="1" parent="0" />
        <mxCell id="VHdL4cxSg4-iYZfVPIcB-1" value="Nossa Via" style="swimlane;childLayout=stackLayout;resizeParent=1;resizeParentMax=0;startSize=20;html=1;" parent="1" vertex="1">
          <mxGeometry x="930" y="130" width="610" height="930" as="geometry" />
        </mxCell>
        <mxCell id="VHdL4cxSg4-iYZfVPIcB-2" value="Usuário" style="swimlane;startSize=20;html=1;" parent="VHdL4cxSg4-iYZfVPIcB-1" vertex="1">
          <mxGeometry y="20" width="370" height="910" as="geometry" />
        </mxCell>
        <mxCell id="VHdL4cxSg4-iYZfVPIcB-124" style="edgeStyle=orthogonalEdgeStyle;rounded=0;orthogonalLoop=1;jettySize=auto;html=1;entryX=0.5;entryY=0;entryDx=0;entryDy=0;" parent="VHdL4cxSg4-iYZfVPIcB-2" source="VHdL4cxSg4-iYZfVPIcB-3" target="VHdL4cxSg4-iYZfVPIcB-7" edge="1">
          <mxGeometry relative="1" as="geometry" />
        </mxCell>
        <mxCell id="VHdL4cxSg4-iYZfVPIcB-3" value="" style="strokeWidth=2;html=1;shape=mxgraph.flowchart.start_2;whiteSpace=wrap;fillColor=#000000;strokeColor=none;" parent="VHdL4cxSg4-iYZfVPIcB-2" vertex="1">
          <mxGeometry x="55" y="50" width="30" height="30" as="geometry" />
        </mxCell>
        <mxCell id="VHdL4cxSg4-iYZfVPIcB-125" style="edgeStyle=orthogonalEdgeStyle;rounded=0;orthogonalLoop=1;jettySize=auto;html=1;entryX=0.5;entryY=1;entryDx=0;entryDy=0;" parent="VHdL4cxSg4-iYZfVPIcB-2" source="VHdL4cxSg4-iYZfVPIcB-4" target="VHdL4cxSg4-iYZfVPIcB-5" edge="1">
          <mxGeometry relative="1" as="geometry" />
        </mxCell>
        <mxCell id="VHdL4cxSg4-iYZfVPIcB-4" value="Cadastrar-se" style="rounded=1;whiteSpace=wrap;html=1;" parent="VHdL4cxSg4-iYZfVPIcB-2" vertex="1">
          <mxGeometry x="240" y="105" width="100" height="30" as="geometry" />
        </mxCell>
        <mxCell id="VHdL4cxSg4-iYZfVPIcB-5" value="Preencher campos" style="rounded=1;whiteSpace=wrap;html=1;" parent="VHdL4cxSg4-iYZfVPIcB-2" vertex="1">
          <mxGeometry x="240" y="50" width="100" height="30" as="geometry" />
        </mxCell>
        <mxCell id="VHdL4cxSg4-iYZfVPIcB-7" value="Visualizar feed de denúncias" style="rounded=1;whiteSpace=wrap;html=1;" parent="VHdL4cxSg4-iYZfVPIcB-2" vertex="1">
          <mxGeometry x="20" y="140" width="100" height="30" as="geometry" />
        </mxCell>
        <mxCell id="VHdL4cxSg4-iYZfVPIcB-8" style="edgeStyle=orthogonalEdgeStyle;rounded=0;orthogonalLoop=1;jettySize=auto;html=1;exitX=0.5;exitY=1;exitDx=0;exitDy=0;entryX=0.5;entryY=0;entryDx=0;entryDy=0;" parent="VHdL4cxSg4-iYZfVPIcB-2" source="VHdL4cxSg4-iYZfVPIcB-9" target="VHdL4cxSg4-iYZfVPIcB-25" edge="1">
          <mxGeometry relative="1" as="geometry">
            <mxPoint x="100" y="380" as="targetPoint" />
          </mxGeometry>
        </mxCell>
        <mxCell id="VHdL4cxSg4-iYZfVPIcB-9" value="Login" style="rounded=1;whiteSpace=wrap;html=1;" parent="VHdL4cxSg4-iYZfVPIcB-2" vertex="1">
          <mxGeometry x="15" y="300" width="100" height="30" as="geometry" />
        </mxCell>
        <mxCell id="VHdL4cxSg4-iYZfVPIcB-126" style="edgeStyle=orthogonalEdgeStyle;rounded=0;orthogonalLoop=1;jettySize=auto;html=1;entryX=0.5;entryY=1;entryDx=0;entryDy=0;exitX=1;exitY=0.5;exitDx=0;exitDy=0;" parent="VHdL4cxSg4-iYZfVPIcB-2" source="VHdL4cxSg4-iYZfVPIcB-13" target="VHdL4cxSg4-iYZfVPIcB-4" edge="1">
          <mxGeometry relative="1" as="geometry" />
        </mxCell>
        <mxCell id="VHdL4cxSg4-iYZfVPIcB-127" value="Não possui&amp;nbsp;&lt;div&gt;cadastro&lt;/div&gt;" style="edgeLabel;html=1;align=center;verticalAlign=middle;resizable=0;points=[];" parent="VHdL4cxSg4-iYZfVPIcB-126" vertex="1" connectable="0">
          <mxGeometry x="0.3059" y="-2" relative="1" as="geometry">
            <mxPoint x="-24" y="3" as="offset" />
          </mxGeometry>
        </mxCell>
        <mxCell id="9SayPDkTYnlZXLVIf-VF-3" style="edgeStyle=orthogonalEdgeStyle;rounded=0;orthogonalLoop=1;jettySize=auto;html=1;entryX=0.5;entryY=0;entryDx=0;entryDy=0;" edge="1" parent="VHdL4cxSg4-iYZfVPIcB-2" source="VHdL4cxSg4-iYZfVPIcB-13" target="9SayPDkTYnlZXLVIf-VF-2">
          <mxGeometry relative="1" as="geometry" />
        </mxCell>
        <mxCell id="VHdL4cxSg4-iYZfVPIcB-13" value="" style="rhombus;whiteSpace=wrap;html=1;" parent="VHdL4cxSg4-iYZfVPIcB-2" vertex="1">
          <mxGeometry x="165" y="135" width="40" height="40" as="geometry" />
        </mxCell>
        <mxCell id="VHdL4cxSg4-iYZfVPIcB-21" style="edgeStyle=orthogonalEdgeStyle;rounded=0;orthogonalLoop=1;jettySize=auto;html=1;exitX=1;exitY=0;exitDx=0;exitDy=0;entryX=0;entryY=0.5;entryDx=0;entryDy=0;" parent="VHdL4cxSg4-iYZfVPIcB-2" source="VHdL4cxSg4-iYZfVPIcB-25" target="VHdL4cxSg4-iYZfVPIcB-27" edge="1">
          <mxGeometry relative="1" as="geometry">
            <mxPoint x="110" y="450" as="targetPoint" />
            <Array as="points">
              <mxPoint x="110" y="480" />
              <mxPoint x="110" y="445" />
            </Array>
          </mxGeometry>
        </mxCell>
        <mxCell id="VHdL4cxSg4-iYZfVPIcB-24" style="edgeStyle=orthogonalEdgeStyle;rounded=0;orthogonalLoop=1;jettySize=auto;html=1;exitX=0.5;exitY=1;exitDx=0;exitDy=0;entryX=0.5;entryY=0;entryDx=0;entryDy=0;" parent="VHdL4cxSg4-iYZfVPIcB-2" source="VHdL4cxSg4-iYZfVPIcB-25" target="VHdL4cxSg4-iYZfVPIcB-40" edge="1">
          <mxGeometry relative="1" as="geometry" />
        </mxCell>
        <mxCell id="VHdL4cxSg4-iYZfVPIcB-104" style="edgeStyle=orthogonalEdgeStyle;rounded=0;orthogonalLoop=1;jettySize=auto;html=1;exitX=1;exitY=1;exitDx=0;exitDy=0;entryX=0;entryY=0.5;entryDx=0;entryDy=0;" parent="VHdL4cxSg4-iYZfVPIcB-2" source="VHdL4cxSg4-iYZfVPIcB-25" target="VHdL4cxSg4-iYZfVPIcB-30" edge="1">
          <mxGeometry relative="1" as="geometry">
            <Array as="points">
              <mxPoint x="100" y="520" />
              <mxPoint x="100" y="655" />
            </Array>
          </mxGeometry>
        </mxCell>
        <mxCell id="VHdL4cxSg4-iYZfVPIcB-25" value="" style="rhombus;whiteSpace=wrap;html=1;" parent="VHdL4cxSg4-iYZfVPIcB-2" vertex="1">
          <mxGeometry x="25" y="460" width="80" height="80" as="geometry" />
        </mxCell>
        <mxCell id="VHdL4cxSg4-iYZfVPIcB-26" style="edgeStyle=orthogonalEdgeStyle;rounded=0;orthogonalLoop=1;jettySize=auto;html=1;exitX=0.5;exitY=0;exitDx=0;exitDy=0;entryX=0.5;entryY=1;entryDx=0;entryDy=0;" parent="VHdL4cxSg4-iYZfVPIcB-2" source="VHdL4cxSg4-iYZfVPIcB-27" target="VHdL4cxSg4-iYZfVPIcB-28" edge="1">
          <mxGeometry relative="1" as="geometry" />
        </mxCell>
        <mxCell id="VHdL4cxSg4-iYZfVPIcB-27" value="&lt;font style=&quot;font-size: 12px;&quot;&gt;Criar&amp;nbsp;&lt;span style=&quot;text-wrap: nowrap;&quot;&gt;denúncia&lt;/span&gt;&lt;/font&gt;" style="rounded=1;whiteSpace=wrap;html=1;" parent="VHdL4cxSg4-iYZfVPIcB-2" vertex="1">
          <mxGeometry x="135" y="430" width="100" height="30" as="geometry" />
        </mxCell>
        <mxCell id="VHdL4cxSg4-iYZfVPIcB-28" value="Adicionar informações&amp;nbsp;" style="rounded=1;whiteSpace=wrap;html=1;" parent="VHdL4cxSg4-iYZfVPIcB-2" vertex="1">
          <mxGeometry x="120" y="340" width="120" height="60" as="geometry" />
        </mxCell>
        <mxCell id="VHdL4cxSg4-iYZfVPIcB-30" value="&lt;span style=&quot;font-size: 11px;&quot;&gt;Interagir com denúncia&lt;/span&gt;" style="rounded=1;whiteSpace=wrap;html=1;" parent="VHdL4cxSg4-iYZfVPIcB-2" vertex="1">
          <mxGeometry x="125" y="640" width="100" height="30" as="geometry" />
        </mxCell>
        <mxCell id="VHdL4cxSg4-iYZfVPIcB-101" style="edgeStyle=orthogonalEdgeStyle;rounded=0;orthogonalLoop=1;jettySize=auto;html=1;entryX=0.5;entryY=0;entryDx=0;entryDy=0;" parent="VHdL4cxSg4-iYZfVPIcB-2" source="VHdL4cxSg4-iYZfVPIcB-32" target="VHdL4cxSg4-iYZfVPIcB-35" edge="1">
          <mxGeometry relative="1" as="geometry">
            <Array as="points">
              <mxPoint x="190" y="780" />
              <mxPoint x="240" y="780" />
            </Array>
          </mxGeometry>
        </mxCell>
        <mxCell id="VHdL4cxSg4-iYZfVPIcB-32" value="&lt;font style=&quot;font-size: 11px;&quot;&gt;Deletar&lt;/font&gt;&lt;div style=&quot;font-size: 11px;&quot;&gt;&lt;span style=&quot;text-wrap: nowrap;&quot;&gt;&lt;font style=&quot;font-size: 11px;&quot;&gt;denúncia&lt;/font&gt;&lt;/span&gt;&lt;br&gt;&lt;/div&gt;" style="rounded=1;whiteSpace=wrap;html=1;" parent="VHdL4cxSg4-iYZfVPIcB-2" vertex="1">
          <mxGeometry x="180" y="755" width="100" height="30" as="geometry" />
        </mxCell>
        <mxCell id="VHdL4cxSg4-iYZfVPIcB-33" style="edgeStyle=orthogonalEdgeStyle;rounded=0;orthogonalLoop=1;jettySize=auto;html=1;exitX=1;exitY=0.5;exitDx=0;exitDy=0;entryX=0;entryY=0.5;entryDx=0;entryDy=0;" parent="VHdL4cxSg4-iYZfVPIcB-2" source="VHdL4cxSg4-iYZfVPIcB-34" target="VHdL4cxSg4-iYZfVPIcB-35" edge="1">
          <mxGeometry relative="1" as="geometry" />
        </mxCell>
        <mxCell id="VHdL4cxSg4-iYZfVPIcB-34" value="Editar informações da&lt;div&gt;&lt;span style=&quot;text-wrap: nowrap;&quot;&gt;denúncia&lt;/span&gt;&lt;br&gt;&lt;/div&gt;" style="rounded=1;whiteSpace=wrap;html=1;" parent="VHdL4cxSg4-iYZfVPIcB-2" vertex="1">
          <mxGeometry x="55" y="840" width="125" height="30" as="geometry" />
        </mxCell>
        <mxCell id="VHdL4cxSg4-iYZfVPIcB-35" value="" style="ellipse;html=1;shape=endState;fillColor=#000000;strokeColor=#000000;" parent="VHdL4cxSg4-iYZfVPIcB-2" vertex="1">
          <mxGeometry x="225" y="840" width="30" height="30" as="geometry" />
        </mxCell>
        <mxCell id="VHdL4cxSg4-iYZfVPIcB-37" style="edgeStyle=orthogonalEdgeStyle;rounded=0;orthogonalLoop=1;jettySize=auto;html=1;exitX=0;exitY=0.5;exitDx=0;exitDy=0;entryX=0;entryY=0.5;entryDx=0;entryDy=0;" parent="VHdL4cxSg4-iYZfVPIcB-2" source="VHdL4cxSg4-iYZfVPIcB-50" target="VHdL4cxSg4-iYZfVPIcB-34" edge="1">
          <mxGeometry relative="1" as="geometry" />
        </mxCell>
        <mxCell id="VHdL4cxSg4-iYZfVPIcB-39" style="edgeStyle=orthogonalEdgeStyle;rounded=0;orthogonalLoop=1;jettySize=auto;html=1;exitX=0.5;exitY=1;exitDx=0;exitDy=0;entryX=0.5;entryY=0;entryDx=0;entryDy=0;" parent="VHdL4cxSg4-iYZfVPIcB-2" source="VHdL4cxSg4-iYZfVPIcB-40" target="VHdL4cxSg4-iYZfVPIcB-50" edge="1">
          <mxGeometry relative="1" as="geometry" />
        </mxCell>
        <mxCell id="VHdL4cxSg4-iYZfVPIcB-40" value="&lt;div style=&quot;text-wrap: nowrap; font-size: 11px;&quot;&gt;&lt;font style=&quot;font-size: 11px;&quot;&gt;&lt;span style=&quot;text-wrap: wrap;&quot;&gt;Denúncias&amp;nbsp;&lt;/span&gt;&lt;span style=&quot;background-color: initial; text-wrap: wrap;&quot;&gt;do&amp;nbsp;&lt;/span&gt;&lt;/font&gt;&lt;/div&gt;&lt;div style=&quot;font-size: 11px;&quot;&gt;&lt;font style=&quot;font-size: 11px;&quot;&gt;usuário&lt;/font&gt;&lt;/div&gt;" style="rounded=1;whiteSpace=wrap;html=1;" parent="VHdL4cxSg4-iYZfVPIcB-2" vertex="1">
          <mxGeometry x="15" y="700" width="100" height="30" as="geometry" />
        </mxCell>
        <mxCell id="VHdL4cxSg4-iYZfVPIcB-95" style="edgeStyle=orthogonalEdgeStyle;rounded=0;orthogonalLoop=1;jettySize=auto;html=1;entryX=0;entryY=0.5;entryDx=0;entryDy=0;" parent="VHdL4cxSg4-iYZfVPIcB-2" source="VHdL4cxSg4-iYZfVPIcB-50" target="VHdL4cxSg4-iYZfVPIcB-32" edge="1">
          <mxGeometry relative="1" as="geometry" />
        </mxCell>
        <mxCell id="VHdL4cxSg4-iYZfVPIcB-50" value="" style="rhombus;whiteSpace=wrap;html=1;" parent="VHdL4cxSg4-iYZfVPIcB-2" vertex="1">
          <mxGeometry x="45" y="750" width="40" height="40" as="geometry" />
        </mxCell>
        <mxCell id="VHdL4cxSg4-iYZfVPIcB-107" style="edgeStyle=orthogonalEdgeStyle;rounded=0;orthogonalLoop=1;jettySize=auto;html=1;entryX=0.75;entryY=0;entryDx=0;entryDy=0;" parent="VHdL4cxSg4-iYZfVPIcB-2" source="VHdL4cxSg4-iYZfVPIcB-105" target="VHdL4cxSg4-iYZfVPIcB-30" edge="1">
          <mxGeometry relative="1" as="geometry" />
        </mxCell>
        <mxCell id="VHdL4cxSg4-iYZfVPIcB-109" style="edgeStyle=orthogonalEdgeStyle;rounded=0;orthogonalLoop=1;jettySize=auto;html=1;entryX=0.25;entryY=0;entryDx=0;entryDy=0;" parent="VHdL4cxSg4-iYZfVPIcB-2" source="VHdL4cxSg4-iYZfVPIcB-105" target="VHdL4cxSg4-iYZfVPIcB-108" edge="1">
          <mxGeometry relative="1" as="geometry" />
        </mxCell>
        <mxCell id="VHdL4cxSg4-iYZfVPIcB-105" value="" style="rhombus;whiteSpace=wrap;html=1;" parent="VHdL4cxSg4-iYZfVPIcB-2" vertex="1">
          <mxGeometry x="180" y="540" width="40" height="40" as="geometry" />
        </mxCell>
        <mxCell id="VHdL4cxSg4-iYZfVPIcB-108" value="&lt;span style=&quot;font-size: 11px;&quot;&gt;Seguir com a criação&lt;/span&gt;" style="rounded=1;whiteSpace=wrap;html=1;" parent="VHdL4cxSg4-iYZfVPIcB-2" vertex="1">
          <mxGeometry x="255" y="600" width="100" height="30" as="geometry" />
        </mxCell>
        <mxCell id="9SayPDkTYnlZXLVIf-VF-1" style="edgeStyle=orthogonalEdgeStyle;rounded=0;orthogonalLoop=1;jettySize=auto;html=1;entryX=-0.065;entryY=0.485;entryDx=0;entryDy=0;entryPerimeter=0;" edge="1" parent="VHdL4cxSg4-iYZfVPIcB-2" source="VHdL4cxSg4-iYZfVPIcB-7" target="VHdL4cxSg4-iYZfVPIcB-13">
          <mxGeometry relative="1" as="geometry" />
        </mxCell>
        <mxCell id="9SayPDkTYnlZXLVIf-VF-4" style="edgeStyle=orthogonalEdgeStyle;rounded=0;orthogonalLoop=1;jettySize=auto;html=1;entryX=0.25;entryY=0;entryDx=0;entryDy=0;" edge="1" parent="VHdL4cxSg4-iYZfVPIcB-2" source="9SayPDkTYnlZXLVIf-VF-2" target="VHdL4cxSg4-iYZfVPIcB-9">
          <mxGeometry relative="1" as="geometry" />
        </mxCell>
        <mxCell id="9SayPDkTYnlZXLVIf-VF-7" style="edgeStyle=orthogonalEdgeStyle;rounded=0;orthogonalLoop=1;jettySize=auto;html=1;entryX=0.5;entryY=0;entryDx=0;entryDy=0;" edge="1" parent="VHdL4cxSg4-iYZfVPIcB-2" source="9SayPDkTYnlZXLVIf-VF-2" target="9SayPDkTYnlZXLVIf-VF-5">
          <mxGeometry relative="1" as="geometry" />
        </mxCell>
        <mxCell id="9SayPDkTYnlZXLVIf-VF-2" value="" style="rhombus;whiteSpace=wrap;html=1;" vertex="1" parent="VHdL4cxSg4-iYZfVPIcB-2">
          <mxGeometry x="165" y="190" width="40" height="40" as="geometry" />
        </mxCell>
        <mxCell id="9SayPDkTYnlZXLVIf-VF-6" style="edgeStyle=orthogonalEdgeStyle;rounded=0;orthogonalLoop=1;jettySize=auto;html=1;entryX=0.75;entryY=0;entryDx=0;entryDy=0;" edge="1" parent="VHdL4cxSg4-iYZfVPIcB-2" source="9SayPDkTYnlZXLVIf-VF-5" target="VHdL4cxSg4-iYZfVPIcB-9">
          <mxGeometry relative="1" as="geometry" />
        </mxCell>
        <mxCell id="9SayPDkTYnlZXLVIf-VF-5" value="Redefinir senha" style="rounded=1;whiteSpace=wrap;html=1;" vertex="1" parent="VHdL4cxSg4-iYZfVPIcB-2">
          <mxGeometry x="211" y="260" width="100" height="30" as="geometry" />
        </mxCell>
        <mxCell id="9SayPDkTYnlZXLVIf-VF-8" value="Esqueceu a senha" style="edgeLabel;html=1;align=center;verticalAlign=middle;resizable=0;points=[];" vertex="1" connectable="0" parent="VHdL4cxSg4-iYZfVPIcB-2">
          <mxGeometry x="261" y="240" as="geometry">
            <mxPoint x="2" y="-9" as="offset" />
          </mxGeometry>
        </mxCell>
        <mxCell id="VHdL4cxSg4-iYZfVPIcB-51" value="Sistema" style="swimlane;startSize=20;html=1;" parent="VHdL4cxSg4-iYZfVPIcB-1" vertex="1">
          <mxGeometry x="370" y="20" width="240" height="910" as="geometry" />
        </mxCell>
        <mxCell id="VHdL4cxSg4-iYZfVPIcB-52" style="edgeStyle=orthogonalEdgeStyle;rounded=0;orthogonalLoop=1;jettySize=auto;html=1;exitX=0.5;exitY=1;exitDx=0;exitDy=0;entryX=0.5;entryY=0;entryDx=0;entryDy=0;" parent="VHdL4cxSg4-iYZfVPIcB-51" source="VHdL4cxSg4-iYZfVPIcB-53" target="VHdL4cxSg4-iYZfVPIcB-54" edge="1">
          <mxGeometry relative="1" as="geometry" />
        </mxCell>
        <mxCell id="VHdL4cxSg4-iYZfVPIcB-53" value="Validar campos" style="rounded=1;whiteSpace=wrap;html=1;" parent="VHdL4cxSg4-iYZfVPIcB-51" vertex="1">
          <mxGeometry x="85" y="80" width="100" height="30" as="geometry" />
        </mxCell>
        <mxCell id="VHdL4cxSg4-iYZfVPIcB-54" value="" style="rhombus;whiteSpace=wrap;html=1;" parent="VHdL4cxSg4-iYZfVPIcB-51" vertex="1">
          <mxGeometry x="115" y="210" width="40" height="40" as="geometry" />
        </mxCell>
        <mxCell id="VHdL4cxSg4-iYZfVPIcB-128" style="edgeStyle=orthogonalEdgeStyle;rounded=0;orthogonalLoop=1;jettySize=auto;html=1;entryX=0.5;entryY=0;entryDx=0;entryDy=0;" parent="VHdL4cxSg4-iYZfVPIcB-51" source="VHdL4cxSg4-iYZfVPIcB-55" target="VHdL4cxSg4-iYZfVPIcB-41" edge="1">
          <mxGeometry relative="1" as="geometry" />
        </mxCell>
        <mxCell id="VHdL4cxSg4-iYZfVPIcB-55" value="Buscar por&amp;nbsp;&lt;div&gt;&lt;span style=&quot;text-wrap: nowrap;&quot;&gt;&lt;font style=&quot;font-size: 12px;&quot;&gt;denúncias&lt;/font&gt;&lt;/span&gt;&lt;div&gt;similares&lt;/div&gt;&lt;/div&gt;" style="rounded=1;whiteSpace=wrap;html=1;" parent="VHdL4cxSg4-iYZfVPIcB-51" vertex="1">
          <mxGeometry x="85" y="345" width="100" height="50" as="geometry" />
        </mxCell>
        <mxCell id="VHdL4cxSg4-iYZfVPIcB-56" style="edgeStyle=orthogonalEdgeStyle;rounded=0;orthogonalLoop=1;jettySize=auto;html=1;exitX=0.5;exitY=1;exitDx=0;exitDy=0;entryX=0.5;entryY=0;entryDx=0;entryDy=0;" parent="VHdL4cxSg4-iYZfVPIcB-51" source="VHdL4cxSg4-iYZfVPIcB-57" target="VHdL4cxSg4-iYZfVPIcB-58" edge="1">
          <mxGeometry relative="1" as="geometry" />
        </mxCell>
        <mxCell id="VHdL4cxSg4-iYZfVPIcB-57" value="Atualiza pontuação" style="rounded=1;whiteSpace=wrap;html=1;" parent="VHdL4cxSg4-iYZfVPIcB-51" vertex="1">
          <mxGeometry x="85" y="755" width="100" height="30" as="geometry" />
        </mxCell>
        <mxCell id="VHdL4cxSg4-iYZfVPIcB-58" value="" style="ellipse;html=1;shape=endState;fillColor=#000000;strokeColor=#000000;" parent="VHdL4cxSg4-iYZfVPIcB-51" vertex="1">
          <mxGeometry x="120" y="805" width="30" height="30" as="geometry" />
        </mxCell>
        <mxCell id="VHdL4cxSg4-iYZfVPIcB-41" value="" style="rhombus;whiteSpace=wrap;html=1;" parent="VHdL4cxSg4-iYZfVPIcB-51" vertex="1">
          <mxGeometry x="115" y="480" width="40" height="40" as="geometry" />
        </mxCell>
        <mxCell id="VHdL4cxSg4-iYZfVPIcB-81" style="edgeStyle=orthogonalEdgeStyle;rounded=0;orthogonalLoop=1;jettySize=auto;html=1;exitX=0;exitY=0.5;exitDx=0;exitDy=0;entryX=1;entryY=0.5;entryDx=0;entryDy=0;" parent="VHdL4cxSg4-iYZfVPIcB-1" source="VHdL4cxSg4-iYZfVPIcB-54" target="VHdL4cxSg4-iYZfVPIcB-5" edge="1">
          <mxGeometry relative="1" as="geometry" />
        </mxCell>
        <mxCell id="VHdL4cxSg4-iYZfVPIcB-82" value="Campo&amp;nbsp;&lt;div&gt;inválidado&lt;/div&gt;" style="edgeLabel;html=1;align=center;verticalAlign=middle;resizable=0;points=[];" parent="VHdL4cxSg4-iYZfVPIcB-81" vertex="1" connectable="0">
          <mxGeometry x="-0.2005" y="-3" relative="1" as="geometry">
            <mxPoint x="-5" y="-11" as="offset" />
          </mxGeometry>
        </mxCell>
        <mxCell id="VHdL4cxSg4-iYZfVPIcB-83" style="edgeStyle=orthogonalEdgeStyle;rounded=0;orthogonalLoop=1;jettySize=auto;html=1;exitX=1;exitY=0.5;exitDx=0;exitDy=0;" parent="VHdL4cxSg4-iYZfVPIcB-1" source="VHdL4cxSg4-iYZfVPIcB-28" target="VHdL4cxSg4-iYZfVPIcB-55" edge="1">
          <mxGeometry relative="1" as="geometry" />
        </mxCell>
        <mxCell id="VHdL4cxSg4-iYZfVPIcB-111" style="edgeStyle=orthogonalEdgeStyle;rounded=0;orthogonalLoop=1;jettySize=auto;html=1;entryX=0.5;entryY=0;entryDx=0;entryDy=0;" parent="VHdL4cxSg4-iYZfVPIcB-1" source="VHdL4cxSg4-iYZfVPIcB-108" target="VHdL4cxSg4-iYZfVPIcB-57" edge="1">
          <mxGeometry relative="1" as="geometry" />
        </mxCell>
        <mxCell id="VHdL4cxSg4-iYZfVPIcB-112" style="edgeStyle=orthogonalEdgeStyle;rounded=0;orthogonalLoop=1;jettySize=auto;html=1;entryX=0;entryY=0.5;entryDx=0;entryDy=0;" parent="VHdL4cxSg4-iYZfVPIcB-1" source="VHdL4cxSg4-iYZfVPIcB-30" target="VHdL4cxSg4-iYZfVPIcB-57" edge="1">
          <mxGeometry relative="1" as="geometry" />
        </mxCell>
        <mxCell id="VHdL4cxSg4-iYZfVPIcB-113" style="edgeStyle=orthogonalEdgeStyle;rounded=0;orthogonalLoop=1;jettySize=auto;html=1;entryX=0.5;entryY=0;entryDx=0;entryDy=0;" parent="VHdL4cxSg4-iYZfVPIcB-1" source="VHdL4cxSg4-iYZfVPIcB-5" target="VHdL4cxSg4-iYZfVPIcB-53" edge="1">
          <mxGeometry relative="1" as="geometry">
            <Array as="points">
              <mxPoint x="290" y="60" />
              <mxPoint x="505" y="60" />
            </Array>
          </mxGeometry>
        </mxCell>
        <mxCell id="VHdL4cxSg4-iYZfVPIcB-115" style="edgeStyle=orthogonalEdgeStyle;rounded=0;orthogonalLoop=1;jettySize=auto;html=1;entryX=1;entryY=0.5;entryDx=0;entryDy=0;exitX=0.5;exitY=1;exitDx=0;exitDy=0;" parent="VHdL4cxSg4-iYZfVPIcB-1" source="VHdL4cxSg4-iYZfVPIcB-54" target="VHdL4cxSg4-iYZfVPIcB-9" edge="1">
          <mxGeometry relative="1" as="geometry" />
        </mxCell>
        <mxCell id="VHdL4cxSg4-iYZfVPIcB-116" value="Campos válidos" style="edgeLabel;html=1;align=center;verticalAlign=middle;resizable=0;points=[];" parent="VHdL4cxSg4-iYZfVPIcB-115" vertex="1" connectable="0">
          <mxGeometry x="-0.1918" y="-3" relative="1" as="geometry">
            <mxPoint x="-81" y="3" as="offset" />
          </mxGeometry>
        </mxCell>
        <mxCell id="VHdL4cxSg4-iYZfVPIcB-106" style="edgeStyle=orthogonalEdgeStyle;rounded=0;orthogonalLoop=1;jettySize=auto;html=1;entryX=0.5;entryY=0;entryDx=0;entryDy=0;" parent="VHdL4cxSg4-iYZfVPIcB-1" source="VHdL4cxSg4-iYZfVPIcB-41" target="VHdL4cxSg4-iYZfVPIcB-105" edge="1">
          <mxGeometry relative="1" as="geometry">
            <Array as="points">
              <mxPoint x="200" y="530" />
            </Array>
          </mxGeometry>
        </mxCell>
        <mxCell id="VHdL4cxSg4-iYZfVPIcB-117" value="Denúncias similares&amp;nbsp;&lt;div&gt;encontradas&lt;/div&gt;" style="edgeLabel;html=1;align=center;verticalAlign=middle;resizable=0;points=[];" parent="VHdL4cxSg4-iYZfVPIcB-106" vertex="1" connectable="0">
          <mxGeometry x="-0.1657" y="1" relative="1" as="geometry">
            <mxPoint x="-48" y="-1" as="offset" />
          </mxGeometry>
        </mxCell>
        <mxCell id="VHdL4cxSg4-iYZfVPIcB-110" style="edgeStyle=orthogonalEdgeStyle;rounded=0;orthogonalLoop=1;jettySize=auto;html=1;entryX=0.75;entryY=0;entryDx=0;entryDy=0;exitX=1;exitY=0.5;exitDx=0;exitDy=0;" parent="VHdL4cxSg4-iYZfVPIcB-1" source="VHdL4cxSg4-iYZfVPIcB-41" target="VHdL4cxSg4-iYZfVPIcB-108" edge="1">
          <mxGeometry relative="1" as="geometry" />
        </mxCell>
        <mxCell id="VHdL4cxSg4-iYZfVPIcB-121" value="Denúncias similares&amp;nbsp;&lt;div&gt;não encontradas&lt;/div&gt;" style="edgeLabel;html=1;align=center;verticalAlign=middle;resizable=0;points=[];" parent="VHdL4cxSg4-iYZfVPIcB-110" vertex="1" connectable="0">
          <mxGeometry x="0.032" relative="1" as="geometry">
            <mxPoint x="3" as="offset" />
          </mxGeometry>
        </mxCell>
      </root>
    </mxGraphModel>
  </diagram>
</mxfile>
